HIERARCHY
ROOT Hips
{
  OFFSET 3.92544 6.39728 0
  CHANNELS 6 Xposition Yposition Zposition Zrotation Xrotation Yrotation
  JOINT BN_Spine_01
  {
    OFFSET 5.06197 -0.168311 0
    CHANNELS 6 Xposition Yposition Zposition Zrotation Xrotation Yrotation
    JOINT BN_Spine_02
    {
      OFFSET 14.8952 0 0
      CHANNELS 6 Xposition Yposition Zposition Zrotation Xrotation Yrotation
      JOINT BN_Spine_03
      {
        OFFSET 14.3786 0 0
        CHANNELS 6 Xposition Yposition Zposition Zrotation Xrotation Yrotation
        JOINT BN__Neck_01
        {
          OFFSET 15.3325 0 0
          CHANNELS 6 Xposition Yposition Zposition Zrotation Xrotation Yrotation
          JOINT BN__Neck_02
          {
            OFFSET 11.0839 0 0
            CHANNELS 6 Xposition Yposition Zposition Zrotation Xrotation Yrotation
            JOINT BN__Neck_R_01
            {
              OFFSET 3.85383 1.1973 3.491
              CHANNELS 6 Xposition Yposition Zposition Zrotation Xrotation Yrotation
              End Site
              {
                OFFSET 0 0 0
              }
            }
            JOINT BN__Neck_L_01
            {
              OFFSET 3.85383 1.1973 -3.49098
              CHANNELS 6 Xposition Yposition Zposition Zrotation Xrotation Yrotation
              End Site
              {
                OFFSET 0 0 0
              }
            }
            JOINT BN_Head_01
            {
              OFFSET 9.67523 0 0
              CHANNELS 6 Xposition Yposition Zposition Zrotation Xrotation Yrotation
              JOINT BN_Mouth_01
              {
                OFFSET 1.08197 -0.588672 0
                CHANNELS 6 Xposition Yposition Zposition Zrotation Xrotation Yrotation
                JOINT BN_Tongue_01
                {
                  OFFSET 2.17792 0.065941 0
                  CHANNELS 6 Xposition Yposition Zposition Zrotation Xrotation Yrotation
                  JOINT BN_Tongue_02
                  {
                    OFFSET 3.80658 -0.000201226 0
                    CHANNELS 6 Xposition Yposition Zposition Zrotation Xrotation Yrotation
                    End Site
                    {
                      OFFSET 0 0 0
                    }
                  }
                }
              }
            }
          }
        }
      }
    }
  }
  JOINT BN_Tail_01
  {
    OFFSET 4.67587 -0.164094 0
    CHANNELS 6 Xposition Yposition Zposition Zrotation Xrotation Yrotation
    JOINT BN_Tail_02
    {
      OFFSET 13.1147 2.52724e-005 0
      CHANNELS 6 Xposition Yposition Zposition Zrotation Xrotation Yrotation
      JOINT BN_Tail_03
      {
        OFFSET 13.4995 9.10759e-005 0
        CHANNELS 6 Xposition Yposition Zposition Zrotation Xrotation Yrotation
        JOINT BN_Tail_04
        {
          OFFSET 13.2851 0 0
          CHANNELS 6 Xposition Yposition Zposition Zrotation Xrotation Yrotation
          JOINT BN_Tail_05
          {
            OFFSET 14.6528 0.000106812 0
            CHANNELS 6 Xposition Yposition Zposition Zrotation Xrotation Yrotation
            JOINT BN_Tail_06
            {
              OFFSET 13.1048 0 0
              CHANNELS 6 Xposition Yposition Zposition Zrotation Xrotation Yrotation
              JOINT BN_Tail_07
              {
                OFFSET 11.869 0.000113964 0
                CHANNELS 6 Xposition Yposition Zposition Zrotation Xrotation Yrotation
                End Site
                {
                  OFFSET 0 0 0
                }
              }
            }
          }
        }
      }
    }
  }
}
MOTION
Frames:	5
Frame Time:	0.0333333
0 4 0 0 0 -0 4.98225 -0.165661 4.5895e-012 -3.95725e-006 -6.41846e-006 58.3451 14.6606 0 -9.53674e-007 1.55577 3.85465 -60.3973 14.1522 7.15256e-007 -1.90735e-006 0.116847 -8.36075 -34.5431 15.0911 -8.88179e-016 0 4.85782 12.0677 28.3644 10.9094 -1.43051e-006 -4.76837e-007 -6.5522 -1.46156 -0.108181 3.01572 3.42918 -3.53546 -87.4279 -9.71681 -71.5329 3.94298 2.99421 5.64643 92.0571 1.15135 101.681 9.52289 -7.15257e-007 -1.43051e-006 -6.87334 0.485944 2.9374 1.06491 -0.579398 -9.53675e-007 0.0629371 2.29909e-006 8.81061e-006 1.57193 0.0146218 0.0423203 6.95617 -0.377771 -0.162716 2.92565 0.00628782 0 -0.993293 -0.153382 -0.0572715 4.60224 -0.16151 3.90332e-012 -178.948 -9.70982e-005 -35.1529 12.9082 2.38419e-007 4.76837e-007 -1.04947 -0.00134503 44.3879 13.2869 -2.38419e-007 -2.86102e-006 1.55501 0.000843369 35.9536 13.0759 -4.76837e-007 3.55271e-015 3.18134 2.62772 54.8311 14.4221 -4.76837e-007 0 1.30522 -1.51939 43.6334 12.8984 0 1.90735e-006 -0.563382 3.56226 -54.4364 11.6821 -9.53675e-007 4.76837e-006 0.575997 0.626549 -72.9117 
0 4 0 0 0 -0 4.98225 -0.165661 -6.23706e-012 -0.0495447 0.00934711 58.285 14.6606 -2.01743e-009 -2.14261e-006 1.67337 3.80869 -60.3204 14.1522 2.97844e-007 6.04562e-007 0.336147 -8.33985 -34.3864 15.0911 9.83722e-007 2.4323e-006 4.99008 12.1502 28.2923 10.9093 7.39381e-007 9.71465e-007 -7.08118 -1.43997 -0.226544 3.01846 3.4243 -3.52072 -87.428 -9.71681 -71.5329 3.94272 2.99032 5.62771 92.0571 1.15134 101.681 9.52287 1.19463e-006 -4.80324e-007 -7.05989 0.483785 2.89328 1.06492 -0.579397 -6.00612e-007 0.0209177 5.05383e-006 1.01648e-005 1.57194 0.0146259 0.0423209 6.97442 -0.377797 -0.162681 2.92866 0.00534868 3.99012e-005 -1.08932 -0.153342 -0.0574203 4.60224 -0.16151 -6.86891e-012 -178.946 -0.000725314 -35.1647 12.9082 -5.56742e-007 -1.60776e-006 -1.04946 -0.00142554 44.3967 13.2869 -3.68585e-007 -7.613e-007 1.55503 0.000775315 35.9486 13.0759 4.2794e-007 2.13289e-006 3.18314 2.62735 54.7949 14.4221 2.85229e-006 -4.80591e-007 1.30179 -1.52479 43.6066 12.8984 1.39864e-006 -2.19303e-006 -0.542792 3.57419 -54.2618 11.6821 1.0819e-006 2.72683e-006 0.569892 0.629202 -72.8968 
0 4 0 0 0 -0 4.98225 -0.165661 4.5895e-012 -0.19467 0.0365248 58.1056 14.6606 -1.21963e-008 -2.34235e-006 2.0059 3.67505 -60.1066 14.1522 5.38323e-007 4.19824e-006 0.966337 -8.28051 -33.9374 15.0911 -9.01883e-007 7.95064e-006 5.36882 12.3872 28.083 10.9093 -3.20195e-008 3.13909e-006 -8.62159 -1.37915 -0.488109 3.02647 3.41005 -3.47764 -87.4278 -9.7168 -71.5329 3.94201 2.97895 5.57294 92.0569 1.15132 101.681 9.52287 4.54812e-007 2.28228e-006 -7.60003 0.47873 2.80424 1.06492 -0.579397 -3.32249e-007 -0.0998949 1.01189e-005 -1.71431e-005 1.57195 0.0146294 0.042323 7.03037 -0.377864 -0.162241 2.93139 0.00450143 7.66073e-005 -1.36535 -0.153209 -0.0578065 4.60224 -0.16151 3.90332e-012 -178.947 -0.00128723 -35.199 12.9082 4.71073e-008 2.39805e-006 -1.04946 -0.00175898 44.4338 13.2869 1.09591e-007 2.90834e-007 1.55499 0.000699712 35.9442 13.0759 5.05968e-007 -1.92896e-006 3.18876 2.62312 54.6859 14.4221 8.15846e-007 -1.70978e-006 1.2977 -1.52934 43.531 12.8984 -1.44348e-007 -1.20775e-006 -0.501004 3.62977 -53.7483 11.6821 -6.56749e-007 -1.77425e-007 0.575947 0.63156 -72.8583 
0 4 0 0 0 -0 4.98225 -0.165661 -6.23706e-012 -0.425071 0.0828017 57.8126 14.6606 1.93998e-007 -1.99171e-006 2.52413 3.44784 -59.7602 14.1522 2.44097e-007 3.56724e-007 1.97516 -8.17597 -33.2306 15.091 -3.75913e-007 -1.3722e-006 5.97065 12.7616 27.7474 10.9093 -8.23601e-007 -1.58576e-006 -11.0576 -1.28665 -0.876162 3.03944 3.387 -3.40795 -87.428 -9.71682 -71.5328 3.94088 2.96058 5.48438 92.0572 1.15134 101.681 9.52286 -3.34329e-007 -1.59548e-006 -8.44937 0.47215 2.6788 1.06491 -0.579397 -5.43553e-007 -0.298435 -1.72192e-005 7.51463e-006 1.57194 0.0146309 0.0423236 7.11897 -0.378235 -0.165798 2.93905 0.00212183 0.000162671 -1.79433 -0.152981 -0.0583572 4.60224 -0.16151 -6.8689e-012 -178.947 -0.00223193 -35.2545 12.9071 -2.13167e-006 2.19839e-006 -1.04947 -0.00225396 44.4894 13.2856 4.47618e-007 -4.04615e-007 1.55498 0.0005397 35.9309 13.0745 -9.69193e-006 1.53725e-006 3.19831 2.61572 54.5094 14.4206 -2.95987e-005 -4.65232e-006 1.28643 -1.54021 43.4117 12.8971 -8.80682e-006 -2.2658e-006 -0.42344 3.70374 -52.9228 11.6809 -1.825e-005 3.47921e-006 0.563547 0.635676 -72.7902 
0 4 0 0 0 -0 4.98225 -0.165661 5.22359e-012 -0.7239 0.143038 57.4128 14.6606 -2.65053e-007 -1.04071e-006 3.20148 3.1293 -59.3092 14.1522 2.88345e-007 -2.81767e-006 3.30522 -8.02483 -32.2976 15.0911 1.7912e-006 -4.55142e-007 6.76751 13.2482 27.3074 10.9094 2.17069e-006 1.3734e-006 -14.2558 -1.16098 -1.36824 3.05695 3.35593 -3.31402 -87.428 -9.71682 -71.5329 3.93938 2.93581 5.36494 92.0569 1.15133 101.681 9.52288 1.39009e-006 1.33182e-006 -9.57649 0.459609 2.5189 1.06491 -0.5794 -9.68841e-008 -0.56913 -3.01407e-007 -1.71964e-005 1.57196 0.0146347 0.0423258 7.23815 -0.378404 -0.165364 2.9473 -0.000449202 0.00025642 -2.35402 -0.1527 -0.0592868 4.60224 -0.16151 4.37646e-012 -178.947 -0.0037037 -35.3294 12.9082 2.13538e-007 -2.51205e-006 -1.05 -0.00168937 44.5645 13.2869 -4.44247e-007 6.23666e-007 1.555 0.000367414 35.9185 13.0759 -8.43719e-007 6.70649e-006 3.20924 2.60072 54.2672 14.4221 -4.7892e-007 -3.56343e-006 1.27666 -1.555 43.2471 12.8984 -7.71538e-007 -3.26555e-006 -0.325862 3.80949 -51.8047 11.6821 -1.54288e-006 6.30811e-007 0.559733 0.639738 -72.6907 
